HIERARCHY
ROOT Hips
{
  OFFSET 40.9192 92.6879 18.85
  CHANNELS 6 Xposition Yposition Zposition Zrotation Xrotation Yrotation
  JOINT LeftUpLeg
  {
    OFFSET 8.64259 1.95398 -2.38835
    CHANNELS 3 Zrotation Xrotation Yrotation
    JOINT LeftLeg
    {
      OFFSET 43.7702 0 0
      CHANNELS 3 Zrotation Xrotation Yrotation
      JOINT LeftFoot
      {
        OFFSET 40.6238 0 0
        CHANNELS 3 Zrotation Xrotation Yrotation
        JOINT LeftToeBase
        {
          OFFSET 12.7242 0 0
          CHANNELS 3 Zrotation Xrotation Yrotation
          End Site
          {
            OFFSET 0 0 0
          }
        }
      }
    }
  }
  JOINT RightUpLeg
  {
    OFFSET -8.2249 1.95398 -2.59336
    CHANNELS 3 Zrotation Xrotation Yrotation
    JOINT RightLeg
    {
      OFFSET 43.5653 0 0
      CHANNELS 3 Zrotation Xrotation Yrotation
      JOINT RightFoot
      {
        OFFSET 40.6238 0 0
        CHANNELS 3 Zrotation Xrotation Yrotation
        JOINT RightToeBase
        {
          OFFSET 12.7242 0 0
          CHANNELS 3 Zrotation Xrotation Yrotation
          End Site
          {
            OFFSET 0 0 0
          }
        }
      }
    }
  }
  JOINT Spine
  {
    OFFSET 0.165834 0.87714 6.61349
    CHANNELS 3 Zrotation Xrotation Yrotation
    JOINT Spine1
    {
      OFFSET 7.38963 1.71661e-005 0
      CHANNELS 3 Zrotation Xrotation Yrotation
      JOINT Spine2
      {
        OFFSET 11.9445 1.14441e-005 0
        CHANNELS 3 Zrotation Xrotation Yrotation
        JOINT Spine3
        {
          OFFSET 14.7254 4.19617e-005 0
          CHANNELS 3 Zrotation Xrotation Yrotation
          JOINT Spine4
          {
            OFFSET 10.9679 0 0
            CHANNELS 3 Zrotation Xrotation Yrotation
            JOINT RightShoulder
            {
              OFFSET 2.46616 -1.6653 3.69651
              CHANNELS 3 Zrotation Xrotation Yrotation
              JOINT RightArm
              {
                OFFSET 13.0012 0 0
                CHANNELS 3 Zrotation Xrotation Yrotation
                JOINT RightForeArm
                {
                  OFFSET 28.7848 1.52588e-005 0
                  CHANNELS 3 Zrotation Xrotation Yrotation
                  JOINT RightHand
                  {
                    OFFSET 26.5688 1.52588e-005 0
                    CHANNELS 3 Zrotation Xrotation Yrotation
                    End Site
                    {
                      OFFSET 0 0 0
                    }
                  }
                }
              }
            }
            JOINT LeftShoulder
            {
              OFFSET 2.38034 -1.29275 -3.7523
              CHANNELS 3 Zrotation Xrotation Yrotation
              JOINT LeftArm
              {
                OFFSET 16.3182 6.10351e-005 0
                CHANNELS 3 Zrotation Xrotation Yrotation
                JOINT LeftForeArm
                {
                  OFFSET 27.0901 0 0
                  CHANNELS 3 Zrotation Xrotation Yrotation
                  JOINT LeftHand
                  {
                    OFFSET 24.5451 1.52588e-005 0
                    CHANNELS 3 Zrotation Xrotation Yrotation
                    End Site
                    {
                      OFFSET 0 0 0
                    }
                  }
                }
              }
            }
            JOINT Neck
            {
              OFFSET 5.0226 -0.0266342 0
              CHANNELS 3 Zrotation Xrotation Yrotation
              JOINT Head
              {
                OFFSET 6.69363 2.86102e-005 0
                CHANNELS 3 Zrotation Xrotation Yrotation
                End Site
                {
                  OFFSET 0 0 0
                }
              }
            }
          }
        }
      }
    }
  }
}
MOTION
Frames:	7
Frame Time:	0.0416667
-2.21454 91.2412 29.3844 -81.4642 -1.18728 -94.5675 -171.521 37.3924 88.6259 -26.0855 13.0688 -4.14002 61.4251 0.777889 1.00721 45.228 14.357 10.9221 -179.97 -5.60004 91.4043 -37.3134 -36.9151 -11.9576 53.8445 1.76152 1.43159 36.9431 0.496259 10.7165 1.03966 7.56628 -88.8067 11.7155 2.62752 2.10001 0.045671 2.7174 1.98233 -22.4883 1.87518 2.79238 -2.47564 1.87517 2.79239 93.2697 -45.4101 -96.6304 26.7008 -9.97448 0.25905 -23.3107 -23.8858 -63.8121 -10.277 -0.960842 3.00796 -93.8194 -47.3477 72.2952 -30.382 9.28169 12.1024 7.40179 11.8274 -34.9322 7.07225 0.410174 1.71906 12.3972 -5.45714 2.68576 -6.51163 -5.85715 -5.51797 
-12.0339 90.7097 32.023 -82.216 0.857409 -93.414 -172.896 36.5425 88.4587 -38.4107 13.7943 -2.33118 63.9356 3.80384 5.8582 36.8044 6.30229 -0.344284 -177.515 1.15709 91.8381 -50.6271 -30.0873 -10.3035 34.7679 8.52475 8.79841 32.3 0.191001 -0.442615 0.912969 7.47914 -88.8172 11.8903 2.3723 2.10428 0.219966 2.46263 1.99783 -22.311 1.63046 2.71972 -2.29831 1.6305 2.71973 92.6317 -45.1775 -97.7164 29.068 -9.44087 3.35223 -17.3472 -23.0122 -58.2908 -12.1587 -1.10173 3.69597 -93.7073 -46.2684 72.1518 -27.7794 9.42937 9.1444 7.62669 12.927 -34.4067 7.12995 0.421371 1.78308 12.5865 -4.34433 0.315388 -6.90945 -4.251 -4.25421 
-20.8948 91.9007 34.471 -84.6947 2.66397 -94.0345 -173.448 26.9849 86.6941 -37.8398 10.4725 -1.65677 68.3181 8.55306 7.18582 33.2329 3.57161 -1.70492 -178.099 15.1992 89.1583 -66.6603 -9.97884 -5.91033 47.4109 2.18982 1.98294 36.4765 0.387384 -6.3283 0.597639 7.74542 -88.9343 11.3682 1.68647 1.95443 -0.302925 1.77084 1.87832 -22.8305 1.02125 2.37072 -2.81789 1.02129 2.37073 92.79 -45.3373 -97.4251 28.8088 -7.75963 4.43836 -17.5952 -25.9699 -54.7359 -7.47332 -0.981491 4.81833 -95.2336 -46.5499 69.8978 -23.8602 10.71 4.2299 6.41983 10.757 -36.6384 9.52825 0.501261 1.28723 11.7078 -2.08129 0.262334 -5.35868 -2.08688 -2.29679 
-30.052 94.2676 36.7921 -85.3701 4.03233 -91.7507 -171.559 15.9366 88.3277 -29.3757 11.6063 -2.95752 67.9411 8.89072 8.28002 36.2318 5.85553 -0.662128 178.009 25.3527 92.1902 -59.3349 -0.373674 -2.38779 63.3101 -3.31643 -1.95273 38.0354 0.356605 -8.37676 0.330654 7.74931 -89.3719 11.3677 0.950859 1.1548 -0.303375 1.00074 1.11183 -22.8354 0.559877 1.38714 -2.82271 0.559862 1.38714 92.9871 -45.984 -96.9787 28.3248 -6.94588 6.78244 -14.8831 -27.1859 -49.2111 -7.56656 -0.985269 4.85324 -94.8212 -45.7881 70.2882 -21.8998 9.43126 -0.530847 7.99198 9.16529 -42.1882 10.9898 0.527997 0.932753 9.43612 0.33801 -0.0237771 -5.13367 0.335379 -0.178669 
-39.6251 95.2775 38.0267 -85.9425 3.53127 -91.1171 -171.139 6.01677 89.5089 -22.2406 13.1647 -3.32532 66.9089 7.70329 8.0476 39.0685 8.11349 0.90081 175.244 27.7636 93.0326 -33.9338 0.697606 0.733458 66.2789 -3.49409 -1.95816 37.9723 0.305519 -9.65921 -0.0665582 7.73644 -89.5909 11.4006 0.0585801 0.80935 -0.270573 0.0941362 0.80599 -22.8038 -0.187356 0.789547 -2.79119 -0.187356 0.789543 93.6561 -47.2216 -95.6716 26.9407 -6.72488 10.8629 -12.7769 -26.8148 -47.1934 -3.55326 -0.724161 4.31631 -94.6003 -44.8437 70.3306 -19.2718 8.27105 -4.05832 9.11755 7.04553 -48.6898 11.8285 0.453872 -0.0035424 8.58764 1.78979 -0.856955 -5.32254 1.91426 1.87891 
-49.964 94.1017 38.2386 -87.117 1.28451 -91.9003 -170.235 -1.75402 90.3677 -21.8546 16.804 -3.51752 68.411 7.53366 6.05804 39.7619 8.90159 5.14661 176.574 26.4367 91.9103 -7.07586 -4.35376 -0.0164859 63.8476 -2.48808 -1.40813 43.7664 0.22532 -7.85558 -0.50182 7.84658 -89.5576 11.1834 -0.79308 0.958286 -0.487676 -0.750147 0.992259 -23.0232 -1.04442 0.675636 -3.01052 -1.0444 0.675639 94.1542 -49.5735 -94.4966 24.8206 -6.59686 14.0002 -11.808 -27.5066 -45.6805 -1.44442 -0.614136 4.21665 -94.2444 -42.9937 70.2929 -16.6225 7.15357 -8.13653 10.6032 6.13862 -53.599 11.6001 0.386269 -0.480391 8.60628 2.19931 -2.19209 -5.10799 2.56784 2.88927 
-61.2689 91.9833 37.9255 -89.7877 -2.51884 -92.1671 -169.634 -7.68053 93.294 -27.4684 24.8278 -1.75727 63.6199 4.41251 5.93061 50.5735 17.9598 4.54256 176.025 27.331 90.9491 -8.53901 -3.19688 0.0178897 65.1868 -2.77814 -1.52451 44.9613 0.226449 -7.77381 -1.04772 8.00315 -89.6275 10.8792 -1.91377 0.922145 -0.790697 -1.87126 1.00548 -23.3369 -2.10242 0.304132 -3.32427 -2.10241 0.304127 94.5783 -49.7291 -93.8141 25.045 -6.16341 16.8079 -12.7652 -28.6048 -45.3841 1.53023 -0.487042 4.54884 -94.0174 -41.863 70.2847 -16.457 6.28802 -9.18002 10.4283 5.25208 -55.2016 12.5097 0.424643 -0.426431 8.09053 2.68281 -2.2785 -5.53984 3.0319 3.83029 
